# xmcd
#
# Track frame offsets:
# 150
# 14832
# 29492
# 41649
# 53803
# 68335
# 82823
# 98935
# 115037
# 129526
# 144013
# 164632
# 185242
# 201427
# 217614
# 230175
# 242752
# 257197
# 271646
# 288403
# 305328
#
# Disc length: 4100 seconds
#
#
# Revision: 1
# Processed by: cddbd v1.5.1PL0 Copyright (c) Steve Scherf et al.
# Submitted via: FreeRIP 2.92 
#
DISCID=2e100215
DTITLE=Hal Leonard Jazz Play Along - Volume 3 - The Blues - 10 Blues Classics
DYEAR=1900
DGENRE=Jazz
TTITLE0=Billie's Bounce
TTITLE1=Billie's Bounce
TTITLE2=Birk's Works - (Split)
TTITLE3=Birk's Works - (Stereo)
TTITLE4=Blues for Alice - (Split)
TTITLE5=Blues for Alice - (Stereo)
TTITLE6=Blues In The Closet - (Split)
TTITLE7=Blues In The Closet - (Stereo)
TTITLE8=C-Jam Blues - (Split)
TTITLE9=C-Jam Blues - (Stereo)
TTITLE10=Freddie Freeloader - (Split)
TTITLE11=Freddie Freeloader - (Stereo)
TTITLE12=Mr. P.C. - (Split)
TTITLE13=Mr. P.C. - (Stereo)
TTITLE14=Now's The Time - (Split)
TTITLE15=Now's The Time - (Stereo)
TTITLE16=Tenor Madness - (Split)
TTITLE17=Tenor Madness - (Stereo)
TTITLE18=Things Ain't What They Used To Be - (Split)
TTITLE19=Things Ain't What They Used To Be - (Stereo)
TTITLE20=Bb Tuning Notes
EXTD=
EXTT0=
EXTT1=
EXTT2=
EXTT3=
EXTT4=
EXTT5=
EXTT6=
EXTT7=
EXTT8=
EXTT9=
EXTT10=
EXTT11=
EXTT12=
EXTT13=
EXTT14=
EXTT15=
EXTT16=
EXTT17=
EXTT18=
EXTT19=
EXTT20=
PLAYORDER=
